<svg xmlns="http://www.w3.org/2000/svg" width="64" height="64" viewBox="0 0 64 64">
  <g id="Group_10959" data-name="Group 10959" transform="translate(-847 424)">
    <rect id="Rectangle_1711" data-name="Rectangle 1711" width="64" height="64" rx="12" transform="translate(847 -424)" fill="#fff"/>
    <path id="Path_54034" data-name="Path 54034" d="M121.878,7.591a6.957,6.957,0,1,0-6.293,6.293,6.964,6.964,0,0,0,6.293-6.293m-4.629-.937a2.319,2.319,0,1,1-2-2,2.322,2.322,0,0,1,2,2" transform="translate(764.494 -420.166)" fill="#0072b6"/>
    <path id="Path_54035" data-name="Path 54035" d="M96.555,114.706a2.321,2.321,0,0,0,2.3-2.319v-9.2a2.319,2.319,0,0,0-2.319-2.319H87.258a2.319,2.319,0,0,0-2.319,2.319v9.072L80.3,109.04v-5.856a6.957,6.957,0,0,1,6.956-6.956h9.275a6.957,6.957,0,0,1,6.957,6.956v9.2a6.967,6.967,0,0,1-4.638,6.559v5.459a2.287,2.287,0,0,1-2.186,2.286l-.062,0a2.289,2.289,0,0,1-2.39-2.286v-7.383a2.336,2.336,0,0,1,2.34-2.319" transform="translate(787.548 -500.278)" fill="#0072b6"/>
    <path id="Path_54036" data-name="Path 54036" d="M1.221,43.82c2.5-2.5,6.717-.5,8.1.162a41.6,41.6,0,0,1,5.235,3.068,2.572,2.572,0,0,1,.715,3.537l-.01.015a2.574,2.574,0,0,1-3.6.722,25.908,25.908,0,0,0-6.324-3.39c.331,1.12,1.275,3.32,3.949,7.154a99.264,99.264,0,0,0,7.33,9.129c1.091,1.294,2.288,2.6,3.476,3.829,1.279,1.326,2.548,2.572,3.668,3.637,2.193,2.087,3.814,3.492,3.814,3.492a99.231,99.231,0,0,0,9.129,7.33c3.834,2.674,6.034,3.617,7.154,3.949-.481-1.594-2.108-4.955-6.487-10.562a2.583,2.583,0,1,1,4.071-3.18,56.094,56.094,0,0,1,6.369,9.76c.658,1.386,2.66,5.6.162,8.1-2.279,2.278-6.32,1.384-12.72-2.815A113.906,113.906,0,0,1,18.3,73.5,113.9,113.9,0,0,1,4.036,56.54c-4.2-6.4-5.094-10.441-2.815-12.72" transform="translate(854.401 -455.631)" fill="#0072b6"/>
  </g>
</svg>
