<svg id="Group_10698" data-name="Group 10698" xmlns="http://www.w3.org/2000/svg" xmlns:xlink="http://www.w3.org/1999/xlink" width="125" height="54.948" viewBox="0 0 125 54.948">
  <defs>
    <clipPath id="clip-path">
      <rect id="Rectangle_1501" data-name="Rectangle 1501" width="125" height="54.948" fill="#fff"/>
    </clipPath>
  </defs>
  <g id="Group_10697" data-name="Group 10697">
    <g id="Group_10696" data-name="Group 10696" clip-path="url(#clip-path)">
      <path id="Path_53842" data-name="Path 53842" d="M121.537,7.4a6.786,6.786,0,1,0-6.139,6.139A6.793,6.793,0,0,0,121.537,7.4m-4.515-.914a2.262,2.262,0,1,1-1.948-1.948,2.265,2.265,0,0,1,1.948,1.948" transform="translate(-90.352 0)" fill="#fff"/>
      <path id="Path_53843" data-name="Path 53843" d="M96.156,114.252A2.264,2.264,0,0,0,98.4,111.99v-8.977a2.262,2.262,0,0,0-2.262-2.262H87.087a2.262,2.262,0,0,0-2.262,2.262v8.849L80.3,108.725v-5.712a6.786,6.786,0,0,1,6.785-6.785h9.047a6.786,6.786,0,0,1,6.786,6.785v8.977a6.8,6.8,0,0,1-4.524,6.4v5.325a2.231,2.231,0,0,1-2.132,2.23l-.06,0a2.233,2.233,0,0,1-2.331-2.23v-7.2a2.279,2.279,0,0,1,2.283-2.262" transform="translate(-67.184 -80.508)" fill="#fff"/>
      <path id="Path_53844" data-name="Path 53844" d="M1.191,43.79c2.437-2.437,6.552-.484,7.9.158A40.581,40.581,0,0,1,14.2,46.941a2.508,2.508,0,0,1,.7,3.45l-.01.015a2.511,2.511,0,0,1-3.509.7A25.272,25.272,0,0,0,5.21,47.8c.323,1.093,1.243,3.239,3.852,6.978a96.824,96.824,0,0,0,7.15,8.9c1.064,1.262,2.231,2.532,3.391,3.735,1.247,1.293,2.485,2.508,3.578,3.548C25.32,73,26.9,74.375,26.9,74.375a96.791,96.791,0,0,0,8.9,7.15c3.739,2.608,5.885,3.528,6.978,3.852-.469-1.554-2.056-4.833-6.328-10.3a2.519,2.519,0,1,1,3.971-3.1,54.715,54.715,0,0,1,6.212,9.52c.641,1.352,2.595,5.467.158,7.9-2.223,2.222-6.165,1.35-12.407-2.746A111.107,111.107,0,0,1,17.848,72.74,111.106,111.106,0,0,1,3.937,56.2c-4.1-6.242-4.969-10.185-2.746-12.407" transform="translate(0 -35.64)" fill="#fff"/>
      <path id="Path_53846" data-name="Path 53846" d="M13.7-11.591a12.543,12.543,0,0,1-6.036-1.451,10.826,10.826,0,0,1-4.243-4.024,11.087,11.087,0,0,1-1.544-5.818A11.087,11.087,0,0,1,3.416-28.7a10.826,10.826,0,0,1,4.243-4.024,12.608,12.608,0,0,1,6.068-1.451,12.727,12.727,0,0,1,5.132,1,10.278,10.278,0,0,1,3.853,2.87l-3.244,2.995a6.976,6.976,0,0,0-5.49-2.558,7.29,7.29,0,0,0-3.619.889,6.32,6.32,0,0,0-2.48,2.48,7.29,7.29,0,0,0-.889,3.619,7.29,7.29,0,0,0,.889,3.619,6.32,6.32,0,0,0,2.48,2.48,7.29,7.29,0,0,0,3.619.889,6.942,6.942,0,0,0,5.49-2.589l3.244,2.995a10.113,10.113,0,0,1-3.868,2.9A12.839,12.839,0,0,1,13.7-11.591Zm26.329-.374-4.211-6.083H31.164v6.083H26.111V-33.8h9.452a12.131,12.131,0,0,1,5.038.967,7.485,7.485,0,0,1,3.291,2.745,7.563,7.563,0,0,1,1.154,4.211,7.412,7.412,0,0,1-1.17,4.2,7.415,7.415,0,0,1-3.322,2.7l4.9,7.019ZM39.93-25.878A3.459,3.459,0,0,0,38.745-28.7a5.307,5.307,0,0,0-3.463-.983H31.164v7.612h4.118a5.249,5.249,0,0,0,3.463-1A3.469,3.469,0,0,0,39.93-25.878ZM68.911-11.965l-.031-13.1L62.454-14.273H60.176l-6.4-10.513v12.821H49.039V-33.8h4.18l8.173,13.57L69.441-33.8H73.59l.062,21.837Z" transform="translate(47.765 46.498)" fill="#fff"/>
    </g>
  </g>
  <path id="Path_53845" data-name="Path 53845" d="M1.607-1.827A1.457,1.457,0,0,1,.906-2a1.257,1.257,0,0,1-.493-.467,1.288,1.288,0,0,1-.179-.676,1.288,1.288,0,0,1,.179-.676,1.257,1.257,0,0,1,.493-.467,1.464,1.464,0,0,1,.7-.168,1.478,1.478,0,0,1,.6.116A1.194,1.194,0,0,1,2.654-4l-.377.348a.81.81,0,0,0-.638-.3.847.847,0,0,0-.42.1.734.734,0,0,0-.288.288.847.847,0,0,0-.1.42.847.847,0,0,0,.1.42.734.734,0,0,0,.288.288.847.847,0,0,0,.42.1.806.806,0,0,0,.638-.3l.377.348a1.174,1.174,0,0,1-.449.337A1.491,1.491,0,0,1,1.607-1.827ZM4.875-3.82v1.949H4.339V-2.1a.75.75,0,0,1-.268.194.843.843,0,0,1-.337.067.83.83,0,0,1-.609-.221A.881.881,0,0,1,2.9-2.719v-1.1h.565V-2.8q0,.471.395.471a.425.425,0,0,0,.326-.132.558.558,0,0,0,.123-.393V-3.82ZM6.056-1.842a1.893,1.893,0,0,1-.475-.06,1.24,1.24,0,0,1-.37-.15L5.4-2.458a1.186,1.186,0,0,0,.315.136,1.321,1.321,0,0,0,.362.053q.359,0,.359-.178a.126.126,0,0,0-.1-.12,1.449,1.449,0,0,0-.3-.062,2.9,2.9,0,0,1-.395-.083.613.613,0,0,1-.27-.167.474.474,0,0,1-.114-.341.533.533,0,0,1,.107-.328.688.688,0,0,1,.312-.223,1.331,1.331,0,0,1,.484-.08,1.9,1.9,0,0,1,.411.045,1.149,1.149,0,0,1,.339.125l-.188.4a1.125,1.125,0,0,0-.562-.145.571.571,0,0,0-.272.051.149.149,0,0,0-.091.13.129.129,0,0,0,.1.127,1.732,1.732,0,0,0,.312.069,3.335,3.335,0,0,1,.391.085.588.588,0,0,1,.264.165.468.468,0,0,1,.112.333.515.515,0,0,1-.109.322.694.694,0,0,1-.317.219A1.412,1.412,0,0,1,6.056-1.842Zm2.525-.123a.581.581,0,0,1-.2.092,1.035,1.035,0,0,1-.255.031.759.759,0,0,1-.538-.178.679.679,0,0,1-.19-.522v-.8h-.3v-.435h.3v-.475h.565v.475h.485v.435H7.958v.793a.266.266,0,0,0,.063.19.235.235,0,0,0,.179.067.363.363,0,0,0,.228-.072ZM9.7-1.842a1.169,1.169,0,0,1-.552-.129.956.956,0,0,1-.382-.357.983.983,0,0,1-.138-.518.983.983,0,0,1,.138-.518.956.956,0,0,1,.382-.357A1.169,1.169,0,0,1,9.7-3.849a1.158,1.158,0,0,1,.551.129.959.959,0,0,1,.38.357.983.983,0,0,1,.138.518.983.983,0,0,1-.138.518.959.959,0,0,1-.38.357A1.158,1.158,0,0,1,9.7-1.842Zm0-.464a.471.471,0,0,0,.357-.147.547.547,0,0,0,.139-.393.547.547,0,0,0-.139-.393A.471.471,0,0,0,9.7-3.385a.477.477,0,0,0-.359.147.543.543,0,0,0-.141.393.543.543,0,0,0,.141.393A.477.477,0,0,0,9.7-2.306Zm3.942-1.543a.786.786,0,0,1,.581.216.878.878,0,0,1,.216.647v1.116h-.565V-2.9a.528.528,0,0,0-.1-.346.338.338,0,0,0-.274-.114.4.4,0,0,0-.315.129.554.554,0,0,0-.116.382v.978h-.565V-2.9q0-.46-.37-.46a.4.4,0,0,0-.312.129.554.554,0,0,0-.116.382v.978H11.15V-3.82h.54V-3.6a.713.713,0,0,1,.266-.188.9.9,0,0,1,.346-.065.838.838,0,0,1,.373.082.661.661,0,0,1,.268.237.8.8,0,0,1,.3-.235A.954.954,0,0,1,13.646-3.849ZM16.9-2.838q0,.011-.011.152H15.414A.459.459,0,0,0,15.6-2.4a.624.624,0,0,0,.37.105.748.748,0,0,0,.27-.045.654.654,0,0,0,.219-.143l.3.326a1.011,1.011,0,0,1-.8.315,1.272,1.272,0,0,1-.583-.129.943.943,0,0,1-.391-.357.983.983,0,0,1-.138-.518,1,1,0,0,1,.136-.516.952.952,0,0,1,.373-.359,1.1,1.1,0,0,1,.531-.129,1.087,1.087,0,0,1,.518.123.9.9,0,0,1,.364.353A1.053,1.053,0,0,1,16.9-2.838Zm-1.011-.583a.487.487,0,0,0-.322.109.463.463,0,0,0-.159.3h.96a.467.467,0,0,0-.159-.3A.476.476,0,0,0,15.888-3.421Zm1.927-.141a.628.628,0,0,1,.274-.214,1.015,1.015,0,0,1,.4-.072v.522q-.094-.007-.127-.007a.518.518,0,0,0-.38.136.549.549,0,0,0-.138.408v.92h-.565V-3.82h.54Zm3.7,1.692-.489-.706h-.54v.706H19.9V-4.407H21a1.409,1.409,0,0,1,.585.112.869.869,0,0,1,.382.319.878.878,0,0,1,.134.489A.861.861,0,0,1,21.966-3a.861.861,0,0,1-.386.313l.569.815Zm-.011-1.616a.4.4,0,0,0-.138-.328.616.616,0,0,0-.4-.114H20.49v.884h.478a.61.61,0,0,0,.4-.116A.4.4,0,0,0,21.508-3.487Zm2.927.648q0,.011-.011.152H22.949a.459.459,0,0,0,.188.286.624.624,0,0,0,.37.105.748.748,0,0,0,.27-.045A.654.654,0,0,0,24-2.483l.3.326a1.011,1.011,0,0,1-.8.315,1.272,1.272,0,0,1-.583-.129.943.943,0,0,1-.391-.357.983.983,0,0,1-.138-.518,1,1,0,0,1,.136-.516.952.952,0,0,1,.373-.359,1.1,1.1,0,0,1,.531-.129,1.087,1.087,0,0,1,.518.123.9.9,0,0,1,.364.353A1.053,1.053,0,0,1,24.435-2.838Zm-1.011-.583a.487.487,0,0,0-.322.109.463.463,0,0,0-.159.3h.96a.467.467,0,0,0-.159-.3A.476.476,0,0,0,23.424-3.421Zm1.388-1.138h.565v2.688h-.565Zm1.877.71a1.014,1.014,0,0,1,.7.216.825.825,0,0,1,.243.65v1.112H27.1v-.243a.63.63,0,0,1-.594.272.922.922,0,0,1-.389-.076.581.581,0,0,1-.252-.21.547.547,0,0,1-.087-.3.508.508,0,0,1,.2-.427,1.043,1.043,0,0,1,.632-.156h.449a.36.36,0,0,0-.112-.284.5.5,0,0,0-.337-.1.984.984,0,0,0-.306.049.81.81,0,0,0-.255.132l-.2-.395a1.224,1.224,0,0,1,.382-.174A1.712,1.712,0,0,1,26.688-3.849Zm-.043,1.627a.492.492,0,0,0,.257-.067.367.367,0,0,0,.159-.2v-.2h-.388q-.348,0-.348.228a.2.2,0,0,0,.085.172A.383.383,0,0,0,26.645-2.222Zm2.75.257a.581.581,0,0,1-.2.092,1.035,1.035,0,0,1-.255.031.759.759,0,0,1-.538-.178.679.679,0,0,1-.19-.522v-.8h-.3v-.435h.3v-.475h.565v.475h.485v.435h-.485v.793a.266.266,0,0,0,.063.19.235.235,0,0,0,.179.067.363.363,0,0,0,.228-.072Zm.319-1.855h.565v1.949h-.565ZM30-4.092a.358.358,0,0,1-.254-.091.294.294,0,0,1-.1-.225.294.294,0,0,1,.1-.225A.358.358,0,0,1,30-4.722a.367.367,0,0,1,.254.087.279.279,0,0,1,.1.217.308.308,0,0,1-.1.234A.354.354,0,0,1,30-4.092Zm1.735,2.25a1.169,1.169,0,0,1-.552-.129.956.956,0,0,1-.382-.357.983.983,0,0,1-.138-.518.983.983,0,0,1,.138-.518.956.956,0,0,1,.382-.357,1.169,1.169,0,0,1,.552-.129,1.158,1.158,0,0,1,.551.129.959.959,0,0,1,.38.357.983.983,0,0,1,.138.518.983.983,0,0,1-.138.518.959.959,0,0,1-.38.357A1.158,1.158,0,0,1,31.731-1.842Zm0-.464a.471.471,0,0,0,.357-.147.547.547,0,0,0,.139-.393.547.547,0,0,0-.139-.393.471.471,0,0,0-.357-.147.477.477,0,0,0-.359.147.543.543,0,0,0-.141.393.543.543,0,0,0,.141.393A.477.477,0,0,0,31.731-2.306Zm2.63-1.543a.8.8,0,0,1,.585.217.862.862,0,0,1,.223.645v1.116H34.6V-2.9a.508.508,0,0,0-.1-.346.372.372,0,0,0-.293-.114.45.45,0,0,0-.341.132.548.548,0,0,0-.127.393v.964h-.565V-3.82h.54v.228A.749.749,0,0,1,34-3.782.972.972,0,0,1,34.362-3.849Zm1.974,2.007a1.893,1.893,0,0,1-.475-.06,1.24,1.24,0,0,1-.37-.15l.188-.406A1.186,1.186,0,0,0,36-2.322a1.321,1.321,0,0,0,.362.053q.359,0,.359-.178a.126.126,0,0,0-.1-.12,1.449,1.449,0,0,0-.3-.062,2.9,2.9,0,0,1-.395-.083.613.613,0,0,1-.27-.167.474.474,0,0,1-.114-.341.533.533,0,0,1,.107-.328.688.688,0,0,1,.312-.223,1.331,1.331,0,0,1,.484-.08,1.9,1.9,0,0,1,.411.045,1.149,1.149,0,0,1,.339.125l-.188.4a1.125,1.125,0,0,0-.562-.145.571.571,0,0,0-.272.051.149.149,0,0,0-.091.13.129.129,0,0,0,.1.127,1.732,1.732,0,0,0,.312.069,3.335,3.335,0,0,1,.391.085.588.588,0,0,1,.264.165.468.468,0,0,1,.112.333.515.515,0,0,1-.109.322.694.694,0,0,1-.317.219A1.412,1.412,0,0,1,36.336-1.842Zm2.453-2.007a.8.8,0,0,1,.585.217.862.862,0,0,1,.223.645v1.116h-.565V-2.9a.508.508,0,0,0-.1-.346.372.372,0,0,0-.293-.114.45.45,0,0,0-.341.132.548.548,0,0,0-.127.393v.964H37.6V-4.559h.565v.942a.752.752,0,0,1,.272-.172A.983.983,0,0,1,38.789-3.849Zm1.319.029h.565v1.949h-.565Zm.283-.272a.358.358,0,0,1-.254-.091.294.294,0,0,1-.1-.225.294.294,0,0,1,.1-.225.358.358,0,0,1,.254-.091.367.367,0,0,1,.254.087.279.279,0,0,1,.1.217.308.308,0,0,1-.1.234A.354.354,0,0,1,40.39-4.092Zm1.96.243a.993.993,0,0,1,.495.125.9.9,0,0,1,.35.351,1.061,1.061,0,0,1,.127.527,1.061,1.061,0,0,1-.127.527.9.9,0,0,1-.35.351.993.993,0,0,1-.495.125.753.753,0,0,1-.587-.235v.909H41.2V-3.82h.54V-3.6A.75.75,0,0,1,42.35-3.849Zm-.1,1.543a.471.471,0,0,0,.357-.147.547.547,0,0,0,.139-.393.547.547,0,0,0-.139-.393.471.471,0,0,0-.357-.147.471.471,0,0,0-.357.147.547.547,0,0,0-.139.393.547.547,0,0,0,.139.393A.471.471,0,0,0,42.252-2.306Zm4.818.435,0-1.522-.746,1.254h-.264L45.313-3.36v1.489h-.551V-4.407h.485L46.2-2.831l.935-1.576h.482l.007,2.536Zm1.9-1.978a1.014,1.014,0,0,1,.7.216.825.825,0,0,1,.243.65v1.112h-.529v-.243a.63.63,0,0,1-.594.272.922.922,0,0,1-.389-.076.581.581,0,0,1-.252-.21.547.547,0,0,1-.087-.3.508.508,0,0,1,.2-.427,1.043,1.043,0,0,1,.632-.156h.449A.36.36,0,0,0,49.23-3.3a.5.5,0,0,0-.337-.1.984.984,0,0,0-.306.049.81.81,0,0,0-.255.132l-.2-.395a1.224,1.224,0,0,1,.382-.174A1.712,1.712,0,0,1,48.969-3.849Zm-.043,1.627a.492.492,0,0,0,.257-.067.367.367,0,0,0,.159-.2v-.2h-.388q-.348,0-.348.228a.2.2,0,0,0,.085.172A.384.384,0,0,0,48.925-2.222ZM51.6-3.849a.8.8,0,0,1,.585.217.862.862,0,0,1,.223.645v1.116h-.565V-2.9a.508.508,0,0,0-.1-.346.372.372,0,0,0-.293-.114.45.45,0,0,0-.341.132.548.548,0,0,0-.127.393v.964h-.565V-3.82h.54v.228a.75.75,0,0,1,.279-.19A.972.972,0,0,1,51.6-3.849Zm2.1,0a1.014,1.014,0,0,1,.7.216.825.825,0,0,1,.243.65v1.112h-.529v-.243a.63.63,0,0,1-.594.272.922.922,0,0,1-.389-.076.581.581,0,0,1-.252-.21.547.547,0,0,1-.087-.3A.508.508,0,0,1,53-2.86a1.043,1.043,0,0,1,.632-.156h.449a.36.36,0,0,0-.112-.284.5.5,0,0,0-.337-.1.984.984,0,0,0-.306.049.81.81,0,0,0-.255.132l-.2-.395a1.224,1.224,0,0,1,.382-.174A1.712,1.712,0,0,1,53.708-3.849Zm-.043,1.627a.492.492,0,0,0,.257-.067.367.367,0,0,0,.159-.2v-.2h-.388q-.348,0-.348.228a.2.2,0,0,0,.085.172A.384.384,0,0,0,53.664-2.222Zm3.547-1.6V-2.2a1.042,1.042,0,0,1-.279.8,1.152,1.152,0,0,1-.815.261,2.039,2.039,0,0,1-.536-.069,1.172,1.172,0,0,1-.42-.2l.225-.406a.924.924,0,0,0,.312.161,1.24,1.24,0,0,0,.377.06.611.611,0,0,0,.433-.132.527.527,0,0,0,.139-.4v-.083a.791.791,0,0,1-.616.243,1.034,1.034,0,0,1-.491-.118.9.9,0,0,1-.353-.331.927.927,0,0,1-.13-.493.927.927,0,0,1,.13-.493.9.9,0,0,1,.353-.331,1.034,1.034,0,0,1,.491-.118.774.774,0,0,1,.645.279v-.25ZM56.142-2.429a.52.52,0,0,0,.368-.132.449.449,0,0,0,.143-.346.449.449,0,0,0-.143-.346.52.52,0,0,0-.368-.132.527.527,0,0,0-.37.132.446.446,0,0,0-.145.346.446.446,0,0,0,.145.346A.527.527,0,0,0,56.142-2.429Zm3.5-.409q0,.011-.011.152H58.16a.459.459,0,0,0,.188.286.624.624,0,0,0,.37.105.748.748,0,0,0,.27-.045.654.654,0,0,0,.219-.143l.3.326a1.011,1.011,0,0,1-.8.315,1.272,1.272,0,0,1-.583-.129.943.943,0,0,1-.391-.357.983.983,0,0,1-.138-.518,1,1,0,0,1,.136-.516A.952.952,0,0,1,58.1-3.72a1.1,1.1,0,0,1,.531-.129,1.087,1.087,0,0,1,.518.123.9.9,0,0,1,.364.353A1.053,1.053,0,0,1,59.646-2.838Zm-1.011-.583a.487.487,0,0,0-.322.109.463.463,0,0,0-.159.3h.96a.467.467,0,0,0-.159-.3A.476.476,0,0,0,58.635-3.421Zm3.884-.428a.786.786,0,0,1,.581.216.878.878,0,0,1,.216.647v1.116H62.75V-2.9a.528.528,0,0,0-.1-.346.338.338,0,0,0-.274-.114.4.4,0,0,0-.315.129.554.554,0,0,0-.116.382v.978h-.565V-2.9q0-.46-.37-.46a.4.4,0,0,0-.312.129.554.554,0,0,0-.116.382v.978h-.565V-3.82h.54V-3.6a.713.713,0,0,1,.266-.188.9.9,0,0,1,.346-.065.838.838,0,0,1,.373.082.661.661,0,0,1,.268.237.8.8,0,0,1,.3-.235A.954.954,0,0,1,62.519-3.849Zm3.253,1.011q0,.011-.011.152H64.287a.459.459,0,0,0,.188.286.624.624,0,0,0,.37.105.748.748,0,0,0,.27-.045.654.654,0,0,0,.219-.143l.3.326a1.011,1.011,0,0,1-.8.315,1.272,1.272,0,0,1-.583-.129.943.943,0,0,1-.391-.357.983.983,0,0,1-.138-.518,1,1,0,0,1,.136-.516.952.952,0,0,1,.373-.359,1.1,1.1,0,0,1,.531-.129,1.087,1.087,0,0,1,.518.123.9.9,0,0,1,.364.353A1.053,1.053,0,0,1,65.772-2.838Zm-1.011-.583a.487.487,0,0,0-.322.109.463.463,0,0,0-.159.3h.96a.467.467,0,0,0-.159-.3A.476.476,0,0,0,64.761-3.421Zm2.572-.428a.8.8,0,0,1,.585.217.862.862,0,0,1,.223.645v1.116h-.565V-2.9a.508.508,0,0,0-.1-.346.372.372,0,0,0-.293-.114.45.45,0,0,0-.341.132.548.548,0,0,0-.127.393v.964h-.565V-3.82h.54v.228a.75.75,0,0,1,.279-.19A.972.972,0,0,1,67.333-3.849Zm2.576,1.884a.581.581,0,0,1-.2.092,1.035,1.035,0,0,1-.255.031.759.759,0,0,1-.538-.178.679.679,0,0,1-.19-.522v-.8h-.3v-.435h.3v-.475h.565v.475h.485v.435h-.485v.793a.266.266,0,0,0,.063.19.235.235,0,0,0,.179.067.363.363,0,0,0,.228-.072Z" transform="translate(52.114 44.203)" fill="#fff"/>
</svg>
