<svg id="Iconly_Bold_Document" data-name="Iconly/Bold/Document" xmlns="http://www.w3.org/2000/svg" width="11" height="13" viewBox="0 0 11 13">
  <g id="Document">
    <path id="Document-2" data-name="Document" d="M8.061,13H2.939C1.071,13,0,11.853,0,9.854V3.14A3.313,3.313,0,0,1,.773.826,2.871,2.871,0,0,1,2.939,0H8.061C9.929,0,11,1.144,11,3.14V9.854a3.3,3.3,0,0,1-.761,2.329A2.844,2.844,0,0,1,8.061,13ZM3.055,8.929a.471.471,0,0,0-.409.243.544.544,0,0,0,0,.546.475.475,0,0,0,.4.238.4.4,0,0,0,.059,0H7.9a.518.518,0,0,0,0-1.02H3.1ZM3.1,5.966a.508.508,0,0,0,0,1.014H7.9a.508.508,0,0,0,0-1.014Zm0-2.944v.006h0a.508.508,0,0,0,0,1.013H4.931a.511.511,0,0,0,0-1.02Z" fill="#fff"/>
  </g>
</svg>
