<?xml version="1.0" encoding="utf-8"?>
<!-- Generator: Adobe Illustrator 26.1.0, SVG Export Plug-In . SVG Version: 6.00 Build 0)  -->
<svg version="1.0" id="Layer_1" xmlns="http://www.w3.org/2000/svg" xmlns:xlink="http://www.w3.org/1999/xlink" x="0px" y="0px"
	 viewBox="0 0 558.508 595.276" style="enable-background:new 0 0 558.508 595.276;" xml:space="preserve">
<g>
	<circle style="fill:#FFFFFF;stroke:#004C90;stroke-width:3;stroke-miterlimit:10;" cx="278.105" cy="294.732" r="234.707"/>
	<circle style="fill:#004C90;" cx="276.981" cy="294.732" r="160.659"/>
	<g>
		<path style="fill:#FFFFFF;" d="M389.859,261.328c-2.218-5.817-6.77-11.012-12.309-14.751
			c-15.992-10.155-40.365-10.884-56.841-1.703c-8.988,4.585-14.891,13.657-16.732,22.988c-3.332,15.341-2.474,33.593,9.342,45.09
			c13.787,12.083,33.841,14.751,51.678,9.79c0.845-0.162,3.533-0.835,5.387-1.822l0.526-0.224
			c5.537-2.302,10.819-6.052,14.761-11.131C394.776,296.262,395.398,276.314,389.859,261.328z M360.817,295.779
			c-0.621,2.906-2.581,5.926-5.666,7.017c-4.916,2.163-11.56,1.565-16.112-0.964c-3.815-2.669-4.306-7.134-4.799-11.365
			c-0.374-8.335-0.974-17.162,1.361-24.79c1.831-4.723,6.877-5.934,11.44-6.288c4.799,0,9.461,0.729,12.427,4.596
			c1.844,2.775,1.727,6.406,2.091,9.673C361.428,280.547,362.048,288.762,360.817,295.779z"/>
		<path style="fill:#FFFFFF;" d="M215.008,303.289c-4.059-0.247-8.613,0.107-12.544-0.374l0.117-42.444l0.247-0.354l12.18-0.118
			c0.13-6.887,0.247-14.279-0.128-20.557l-46.375-0.128l-7.637,0.128c-0.118,6.406-0.118,13.894,0,20.429
			c4.189,0.128,8.119,0,12.18,0.375v41.105l-0.117,1.692l-12.181,0.247c-0.257,6.758-0.257,13.294,0,19.947h54.259V303.289z"/>
		<path style="fill:#FFFFFF;" d="M271.86,304.231c-11.569,3.15-24.124,0.75-32.491-7.969c-0.975-1.211-1.596-2.647-2.583-3.858
			l-16.604,0.12c-0.257,9.788-0.375,21.036,0,30.711l18.447-0.117l0.246-5.806c2.099,0.962,4.189,2.173,6.278,3.254
			c12.8,5.325,29.277,6.536,41.951,0c9.235-5.066,14.161-14.856,12.8-25.399c-1.348-10.264-11.193-19.582-21.157-22.11
			l-29.781-8.592l-2.208-1.093c-0.985-0.836-1.606-1.918-1.361-3.257c2.336-3.986,7.757-2.775,11.816-2.667
			c8.613,1.211,17.473,4.114,22.518,11.977c5.41,0,11.687,0.107,17.59-0.128c0.247-9.91-0.107-18.608-0.247-28.646
			c-5.537-0.128-12.307-0.128-17.836,0.128c-0.247,1.435,0.237,3.482-0.375,4.939l-5.656-3.021
			c-13.54-5.678-32.491-6.277-44.789,2.55c-8.002,5.795-10.456,16.208-8.366,25.388c1.596,8.699,9.962,15.105,17.965,18.125
			c10.949,3.867,22.39,6.663,33.477,10.401c1.103,0.493,2.57,1.587,2.335,2.915C273.831,303.15,272.717,303.772,271.86,304.231z"/>
	</g>
	<g>
		<path style="fill:#FFFFFF;" d="M211.11,373.426c0,5.288-2.917,8.156-9.075,8.156c-5.834,0-8.859-2.868-8.859-7.888v-0.807h5.618
			v1.121c0,2.24,1.188,3.092,3.079,3.092c2.106,0,3.295-0.852,3.295-3.854v-5.691h-0.108c-1.026,1.793-2.755,2.734-5.402,2.734
			c-4.375,0-6.59-2.555-6.59-7.171v-5.736c0-5.02,3.187-7.888,9.021-7.888c5.834,0,9.021,2.868,9.021,7.888V373.426z
			 M205.168,362.715v-5.646c0-2.241-1.188-3.048-3.079-3.048c-1.89,0-3.079,0.807-3.079,3.048v5.646
			c0,2.241,1.188,3.093,3.079,3.093C203.979,365.807,205.168,364.956,205.168,362.715z"/>
		<path style="fill:#FFFFFF;" d="M214.567,357.382c0-5.02,3.187-7.888,9.021-7.888c5.833,0,9.021,2.868,9.021,7.888v16.312
			c0,5.02-3.187,7.888-9.021,7.888c-5.834,0-9.021-2.868-9.021-7.888V357.382z M220.509,374.009c0,2.24,1.188,3.092,3.079,3.092
			s3.079-0.852,3.079-3.092v-16.94c0-2.241-1.188-3.093-3.079-3.093s-3.079,0.852-3.079,3.093V374.009z"/>
		<path style="fill:#FFFFFF;" d="M235.958,357.382c0-5.02,3.187-7.888,9.021-7.888c5.833,0,9.021,2.868,9.021,7.888v16.312
			c0,5.02-3.187,7.888-9.021,7.888c-5.834,0-9.021-2.868-9.021-7.888V357.382z M241.9,374.009c0,2.24,1.188,3.092,3.079,3.092
			s3.079-0.852,3.079-3.092v-16.94c0-2.241-1.188-3.093-3.079-3.093s-3.079,0.852-3.079,3.093V374.009z"/>
		<path style="fill:#FFFFFF;" d="M257.509,353.797c4.591,0,5.617-1.838,6.536-3.943h3.997v31.37h-5.941v-23.932h-4.591V353.797z"/>
		<path style="fill:#FFFFFF;" d="M280.953,359.398v4.751h-5.726v-4.751H280.953z M280.953,376.473v4.75h-5.726v-4.75H280.953z"/>
		<path style="fill:#FFFFFF;" d="M293.971,353.975c-1.891,0-3.079,0.852-3.079,3.093v3.361h-5.618v-3.048
			c0-5.02,3.025-7.888,8.858-7.888c5.834,0,8.859,2.868,8.859,7.888c0,4.168-1.836,7.529-7.346,12.414
			c-3.511,3.137-4.483,4.616-4.483,6.274c0,0.224,0,0.447,0.054,0.672h11.235v4.481h-17.177v-3.854c0-3.495,1.513-6.14,5.942-9.993
			c4.537-3.988,5.833-6.453,5.833-9.814C297.049,354.738,295.861,353.975,293.971,353.975z"/>
		<path style="fill:#FFFFFF;" d="M306.179,357.382c0-5.02,3.187-7.888,9.021-7.888c5.833,0,9.021,2.868,9.021,7.888v16.312
			c0,5.02-3.187,7.888-9.021,7.888c-5.834,0-9.021-2.868-9.021-7.888V357.382z M312.121,374.009c0,2.24,1.188,3.092,3.079,3.092
			s3.079-0.852,3.079-3.092v-16.94c0-2.241-1.188-3.093-3.079-3.093s-3.079,0.852-3.079,3.093V374.009z"/>
		<path style="fill:#FFFFFF;" d="M327.729,353.797c4.592,0,5.618-1.838,6.536-3.943h3.997v31.37h-5.941v-23.932h-4.592V353.797z"/>
		<path style="fill:#FFFFFF;" d="M348.795,371.095v2.913c0,2.24,1.188,3.047,3.079,3.047c1.891,0,3.079-0.807,3.079-3.047v-6.902
			c0-2.24-1.188-3.092-3.079-3.092c-1.89,0-3.079,0.852-3.079,3.092v0.941h-5.618l1.08-18.194h15.665v4.481h-10.371l-0.486,7.483
			h0.108c1.081-1.479,2.755-2.285,5.132-2.285c4.375,0,6.59,2.555,6.59,7.17v6.991c0,5.02-3.025,7.888-8.859,7.888
			c-5.833,0-8.858-2.868-8.858-7.888v-2.599H348.795z"/>
	</g>
	<g>
		<path style="fill:#004C90;" d="M154.184,150.796l4.29,4.336c5.166,5.223,4.971,11.321-1.098,17.326s-12.168,6.135-17.335,0.912
			l-16.79-16.974c-5.167-5.223-4.972-11.321,1.098-17.326c6.07-6.005,12.169-6.135,17.335-0.912l3.137,3.171l-5.845,5.783
			l-3.459-3.497c-2.306-2.332-4.419-1.994-6.386-0.049c-1.967,1.946-2.327,4.056-0.021,6.388l17.436,17.626
			c2.306,2.332,4.373,1.947,6.34,0.002c1.967-1.946,2.373-4.009,0.066-6.341l-4.612-4.663L154.184,150.796z"/>
		<path style="fill:#004C90;" d="M171.073,127.016l10.143-6.295l3.458,5.572l-10.142,6.295l7.088,11.424l12.762-7.921l3.458,5.572
			l-20.151,12.507l-24.203-39.008l20.15-12.506l3.458,5.572l-12.762,7.92L171.073,127.016z"/>
		<path style="fill:#004C90;" d="M228.085,129.651c-0.827-0.967-1.357-1.549-2.554-5.09l-2.308-6.835
			c-1.364-4.039-3.515-4.974-7.261-3.708l-2.846,0.961l5.979,17.708l-8.24,2.783L196.17,91.976l12.435-4.199
			c8.539-2.884,13.321-0.831,15.587,5.88l1.154,3.417c1.511,4.474,0.753,7.914-2.435,10.582l0.042,0.125
			c4.603,0.037,7.042,2.812,8.573,7.349l2.266,6.711c0.713,2.112,1.313,3.641,2.682,4.978L228.085,129.651z M206.508,95.407
			l4.511,13.358l3.221-1.088c3.071-1.037,4.566-2.788,3.392-6.268l-1.448-4.287c-1.049-3.106-2.784-4.043-5.706-3.057
			L206.508,95.407z"/>
		<path style="fill:#004C90;" d="M243.087,78.841l26.749-2.636l0.644,6.528l-9.047,0.891l3.863,39.167l-8.654,0.853l-3.863-39.167
			l-9.047,0.892L243.087,78.841z"/>
		<path style="fill:#004C90;" d="M292.39,76.883l8.666,0.733l-3.866,45.747l-8.666-0.733L292.39,76.883z"/>
		<path style="fill:#004C90;" d="M328.869,103.429l10.827,2.969l-1.735,6.324l-10.827-2.968l-5.014,18.278l-8.387-2.3l12.145-44.273
			l22.188,6.084l-1.735,6.324l-13.801-3.783L328.869,103.429z"/>
		<path style="fill:#004C90;" d="M369.315,96.337l7.825,3.795l-20.027,41.314l-7.825-3.795L369.315,96.337z"/>
		<path style="fill:#004C90;" d="M394.443,133.339l9.583,7.118l-3.911,5.266l-9.583-7.117l-8.017,10.795l12.058,8.955l-3.911,5.266
			l-19.038-14.14l27.375-36.861l19.039,14.141l-3.911,5.266l-12.058-8.955L394.443,133.339z"/>
		<path style="fill:#004C90;" d="M436.276,143.761l8.897,10.492c5.624,6.634,5.333,12.478-0.271,17.229l-17.712,15.017
			c-5.604,4.751-11.417,4.082-17.042-2.551l-8.897-10.493L436.276,143.761z M436.897,154.636l-25.017,21.21l3.17,3.738
			c1.79,2.111,3.765,2.613,6.266,0.492l18.213-15.44c2.501-2.121,2.328-4.15,0.539-6.261L436.897,154.636z"/>
	</g>
	<g>
		<path style="fill:#004C90;" d="M145.186,445.433l-4.86,4.19c-5.854,5.047-12.24,4.403-18.106-2.399
			c-5.867-6.803-5.564-13.214,0.289-18.261l19.023-16.401c5.854-5.047,12.24-4.403,18.107,2.399s5.564,13.214-0.29,18.261
			l-3.554,3.063l-5.649-6.551l3.92-3.379c2.613-2.253,2.411-4.495,0.509-6.699c-1.901-2.205-4.089-2.734-6.702-0.481l-19.755,17.032
			c-2.613,2.253-2.358,4.449-0.458,6.654c1.901,2.204,4.037,2.779,6.65,0.526l5.226-4.506L145.186,445.433z"/>
		<path style="fill:#004C90;" d="M173.313,445.567c4.277-6.436,10.808-7.397,18.288-2.426c7.48,4.973,9.122,11.366,4.844,17.802
			l-13.902,20.918c-4.278,6.436-10.809,7.397-18.289,2.426c-7.48-4.973-9.122-11.366-4.844-17.802L173.313,445.567z
			 M166.762,471.951c-1.91,2.873-1.111,4.978,1.312,6.589c2.424,1.611,4.673,1.532,6.583-1.341l14.437-21.722
			c1.91-2.873,1.112-4.978-1.312-6.589c-2.424-1.611-4.673-1.532-6.583,1.341L166.762,471.951z"/>
		<path style="fill:#004C90;" d="M226.941,497.128l0.16,0.044l15.099-31.396l12.262,3.404l-12.914,46.537l-8.334-2.313l9.261-33.374
			l-0.16-0.045l-15.191,31.729l-8.334-2.313l2.721-34.689l-0.16-0.044l-9.132,32.908l-7.693-2.136l12.914-46.537l12.261,3.403
			L226.941,497.128z"/>
		<path style="fill:#004C90;" d="M299.271,481.013l0.233,6.274c0.287,7.724-4.044,12.097-13.188,12.438l-4.322,0.161l0.674,18.135
			l-9.143,0.341l-1.794-48.268l13.464-0.502C294.339,469.252,298.984,473.291,299.271,481.013z M281.131,476.649l0.607,16.342
			l4.322-0.161c2.909-0.108,4.447-1.271,4.319-4.718l-0.27-7.24c-0.128-3.448-1.748-4.492-4.657-4.384L281.131,476.649z"/>
		<path style="fill:#004C90;" d="M355.205,503.753l-8.804,2.777l-4.143-7.883l-10.708,3.379l1.128,8.833l-8.011,2.527l-5.643-48.87
			l12.77-4.029L355.205,503.753z M330.69,495.424l8.408-2.653l-11.471-21.995l-0.159,0.05L330.69,495.424z"/>
		<path style="fill:#004C90;" d="M368.334,457.368l-0.138,0.094l19.596,28.979l-6.82,4.612l-27.056-40.012l9.507-6.429
			l23.842,18.778l0.138-0.093l-16.194-23.95l6.751-4.565l27.055,40.012l-7.785,5.265L368.334,457.368z"/>
		<path style="fill:#004C90;" d="M420.885,437.145l-32.227-11.746l6.114-7.356l21.342,8.758l0.106-0.128l-12.518-19.376l5.582-6.716
			l17.447,29.528l12.312,10.231l-5.848,7.035L420.885,437.145z"/>
	</g>
</g>
</svg>
