<svg xmlns="http://www.w3.org/2000/svg" width="20" height="19.5" viewBox="0 0 20 19.5">
  <g id="Group_10934" data-name="Group 10934" transform="translate(-51 -604.5)">
    <g id="Group_10933" data-name="Group 10933" transform="translate(-426 209.997)">
      <rect id="Rectangle_1" data-name="Rectangle 1" width="9" height="19" rx="2" transform="translate(477 395.003)" fill="#fff"/>
      <path id="Path_47" data-name="Path 47" d="M2,1.7,7,0C8.241-.422,9,.9,9,2v9a2,2,0,0,1-2,2H2a2,2,0,0,1-2-2V4.186A2.919,2.919,0,0,1,2,1.7Z" transform="translate(488 401.003)" fill="#fff"/>
    </g>
    <path id="Fill_4" data-name="Fill 4" d="M2.41,0A2.41,2.41,0,1,0,4.82,2.41,2.411,2.411,0,0,0,2.41,0" transform="translate(62.179 605)" fill="#fff" stroke="rgba(0,0,0,0)" stroke-width="1"/>
  </g>
</svg>
